<mxfile host="app.diagrams.net" modified="2022-08-30T08:12:51.292Z" agent="5.0 (Windows NT 10.0; Win64; x64) AppleWebKit/537.36 (KHTML, like Gecko) Chrome/104.0.0.0 Safari/537.36" etag="5BEsLZ_dLKUIcJdnfqrv" version="20.2.3" type="github">
  <diagram id="JA07itONKZQcsJaaxsAR" name="第 1 页">
    <mxGraphModel dx="1289" dy="708" grid="1" gridSize="10" guides="1" tooltips="1" connect="1" arrows="1" fold="1" page="1" pageScale="1" pageWidth="827" pageHeight="1169" math="0" shadow="0">
      <root>
        <mxCell id="0" />
        <mxCell id="1" parent="0" />
        <mxCell id="28f1PO6iU7kGZ7PdNL6H-4" style="rounded=0;orthogonalLoop=1;jettySize=auto;html=1;exitX=0.5;exitY=1;exitDx=0;exitDy=0;strokeColor=default;shape=link;" edge="1" parent="1" source="28f1PO6iU7kGZ7PdNL6H-1" target="28f1PO6iU7kGZ7PdNL6H-3">
          <mxGeometry relative="1" as="geometry" />
        </mxCell>
        <mxCell id="28f1PO6iU7kGZ7PdNL6H-1" value="&lt;font style=&quot;font-size: 10px;&quot; color=&quot;#3333ff&quot;&gt;!/check_duplicated&amp;nbsp;&lt;/font&gt;" style="rounded=1;whiteSpace=wrap;html=1;" vertex="1" parent="1">
          <mxGeometry x="237" y="95" width="90" height="30" as="geometry" />
        </mxCell>
        <mxCell id="28f1PO6iU7kGZ7PdNL6H-3" value="" style="rounded=0;whiteSpace=wrap;html=1;direction=south;" vertex="1" parent="1">
          <mxGeometry x="276.51" y="180" width="10.99" height="60" as="geometry" />
        </mxCell>
        <mxCell id="28f1PO6iU7kGZ7PdNL6H-5" value="" style="endArrow=classic;html=1;rounded=0;strokeColor=default;" edge="1" parent="1">
          <mxGeometry width="50" height="50" relative="1" as="geometry">
            <mxPoint x="140" y="179.17" as="sourcePoint" />
            <mxPoint x="270" y="179" as="targetPoint" />
          </mxGeometry>
        </mxCell>
        <mxCell id="28f1PO6iU7kGZ7PdNL6H-6" value="1.Approve Button" style="edgeLabel;html=1;align=center;verticalAlign=middle;resizable=0;points=[];" vertex="1" connectable="0" parent="28f1PO6iU7kGZ7PdNL6H-5">
          <mxGeometry x="-0.5905" relative="1" as="geometry">
            <mxPoint x="32" y="1" as="offset" />
          </mxGeometry>
        </mxCell>
        <mxCell id="28f1PO6iU7kGZ7PdNL6H-7" style="rounded=0;orthogonalLoop=1;jettySize=auto;html=1;exitX=0.5;exitY=1;exitDx=0;exitDy=0;strokeColor=default;shape=link;" edge="1" parent="1" target="28f1PO6iU7kGZ7PdNL6H-8">
          <mxGeometry relative="1" as="geometry">
            <mxPoint x="120.00000000000014" y="130" as="sourcePoint" />
          </mxGeometry>
        </mxCell>
        <mxCell id="28f1PO6iU7kGZ7PdNL6H-8" value="" style="rounded=0;whiteSpace=wrap;html=1;direction=south;" vertex="1" parent="1">
          <mxGeometry x="115" y="180" width="10" height="240" as="geometry" />
        </mxCell>
        <mxCell id="28f1PO6iU7kGZ7PdNL6H-9" value="" style="shape=umlActor;verticalLabelPosition=bottom;verticalAlign=top;html=1;outlineConnect=0;" vertex="1" parent="1">
          <mxGeometry x="105" y="70" width="30" height="60" as="geometry" />
        </mxCell>
        <mxCell id="28f1PO6iU7kGZ7PdNL6H-11" value="y" style="endArrow=classic;html=1;rounded=0;strokeColor=default;" edge="1" parent="1">
          <mxGeometry width="50" height="50" relative="1" as="geometry">
            <mxPoint x="270" y="240" as="sourcePoint" />
            <mxPoint x="135" y="240" as="targetPoint" />
          </mxGeometry>
        </mxCell>
        <mxCell id="28f1PO6iU7kGZ7PdNL6H-13" value="Remove duplicated&lt;br&gt;Yes or No?" style="edgeLabel;html=1;align=center;verticalAlign=middle;resizable=0;points=[];" vertex="1" connectable="0" parent="28f1PO6iU7kGZ7PdNL6H-11">
          <mxGeometry x="0.2583" y="-3" relative="1" as="geometry">
            <mxPoint x="16" y="3" as="offset" />
          </mxGeometry>
        </mxCell>
        <mxCell id="28f1PO6iU7kGZ7PdNL6H-20" style="rounded=0;orthogonalLoop=1;jettySize=auto;html=1;exitX=0.5;exitY=1;exitDx=0;exitDy=0;strokeColor=default;shape=link;" edge="1" parent="1" source="28f1PO6iU7kGZ7PdNL6H-21" target="28f1PO6iU7kGZ7PdNL6H-22">
          <mxGeometry relative="1" as="geometry" />
        </mxCell>
        <mxCell id="28f1PO6iU7kGZ7PdNL6H-21" value="&lt;font color=&quot;#3333ff&quot; style=&quot;font-size: 10px;&quot;&gt;/remove_duplicated&amp;nbsp;&lt;/font&gt;" style="rounded=1;whiteSpace=wrap;html=1;" vertex="1" parent="1">
          <mxGeometry x="336.75" y="95" width="94" height="30" as="geometry" />
        </mxCell>
        <mxCell id="28f1PO6iU7kGZ7PdNL6H-22" value="" style="rounded=0;whiteSpace=wrap;html=1;direction=south;" vertex="1" parent="1">
          <mxGeometry x="380" y="280" width="7.5" height="50" as="geometry" />
        </mxCell>
        <mxCell id="28f1PO6iU7kGZ7PdNL6H-23" value="" style="endArrow=classic;html=1;rounded=0;strokeColor=default;" edge="1" parent="1">
          <mxGeometry width="50" height="50" relative="1" as="geometry">
            <mxPoint x="135" y="280.16999999999996" as="sourcePoint" />
            <mxPoint x="370" y="280" as="targetPoint" />
          </mxGeometry>
        </mxCell>
        <mxCell id="28f1PO6iU7kGZ7PdNL6H-24" value="2. Yes: Remove duplicated" style="edgeLabel;html=1;align=center;verticalAlign=middle;resizable=0;points=[];" vertex="1" connectable="0" parent="28f1PO6iU7kGZ7PdNL6H-23">
          <mxGeometry x="-0.5905" relative="1" as="geometry">
            <mxPoint x="85" as="offset" />
          </mxGeometry>
        </mxCell>
        <mxCell id="28f1PO6iU7kGZ7PdNL6H-30" value="y" style="endArrow=classic;html=1;rounded=0;strokeColor=default;" edge="1" parent="1">
          <mxGeometry width="50" height="50" relative="1" as="geometry">
            <mxPoint x="370" y="330" as="sourcePoint" />
            <mxPoint x="135.0000000000001" y="330" as="targetPoint" />
          </mxGeometry>
        </mxCell>
        <mxCell id="28f1PO6iU7kGZ7PdNL6H-31" value="Combination Result (fresh page)&amp;nbsp;" style="edgeLabel;html=1;align=center;verticalAlign=middle;resizable=0;points=[];" vertex="1" connectable="0" parent="28f1PO6iU7kGZ7PdNL6H-30">
          <mxGeometry x="0.2583" y="-3" relative="1" as="geometry">
            <mxPoint x="39" y="3" as="offset" />
          </mxGeometry>
        </mxCell>
        <mxCell id="28f1PO6iU7kGZ7PdNL6H-34" value="" style="endArrow=classic;html=1;rounded=0;strokeColor=default;" edge="1" parent="1">
          <mxGeometry width="50" height="50" relative="1" as="geometry">
            <mxPoint x="135" y="370.16999999999996" as="sourcePoint" />
            <mxPoint x="480" y="370" as="targetPoint" />
          </mxGeometry>
        </mxCell>
        <mxCell id="28f1PO6iU7kGZ7PdNL6H-35" value="2. No: Don&#39;t remove&amp;nbsp;&amp;nbsp;duplicated" style="edgeLabel;html=1;align=center;verticalAlign=middle;resizable=0;points=[];" vertex="1" connectable="0" parent="28f1PO6iU7kGZ7PdNL6H-34">
          <mxGeometry x="-0.5905" relative="1" as="geometry">
            <mxPoint x="73" as="offset" />
          </mxGeometry>
        </mxCell>
        <mxCell id="28f1PO6iU7kGZ7PdNL6H-36" value="&lt;font color=&quot;#3333ff&quot; style=&quot;font-size: 10px;&quot;&gt;/&lt;/font&gt;&lt;font color=&quot;#3333ff&quot;&gt;&lt;span style=&quot;font-size: 10px;&quot;&gt;validate_amount&lt;/span&gt;&lt;/font&gt;" style="rounded=1;whiteSpace=wrap;html=1;" vertex="1" parent="1">
          <mxGeometry x="440" y="95" width="94" height="30" as="geometry" />
        </mxCell>
        <mxCell id="28f1PO6iU7kGZ7PdNL6H-37" style="rounded=0;orthogonalLoop=1;jettySize=auto;html=1;exitX=1;exitY=0.5;exitDx=0;exitDy=0;strokeColor=default;shape=link;entryX=0;entryY=0.5;entryDx=0;entryDy=0;startArrow=none;" edge="1" parent="1" source="28f1PO6iU7kGZ7PdNL6H-47" target="28f1PO6iU7kGZ7PdNL6H-38">
          <mxGeometry relative="1" as="geometry">
            <mxPoint x="486.7" y="125" as="sourcePoint" />
            <mxPoint x="487" y="280" as="targetPoint" />
          </mxGeometry>
        </mxCell>
        <mxCell id="28f1PO6iU7kGZ7PdNL6H-38" value="" style="rounded=0;whiteSpace=wrap;html=1;direction=south;" vertex="1" parent="1">
          <mxGeometry x="483.25" y="370" width="7.5" height="40" as="geometry" />
        </mxCell>
        <mxCell id="28f1PO6iU7kGZ7PdNL6H-45" value="" style="endArrow=classic;html=1;rounded=0;strokeColor=default;" edge="1" parent="1">
          <mxGeometry width="50" height="50" relative="1" as="geometry">
            <mxPoint x="300" y="200" as="sourcePoint" />
            <mxPoint x="479.25" y="200.19" as="targetPoint" />
          </mxGeometry>
        </mxCell>
        <mxCell id="28f1PO6iU7kGZ7PdNL6H-46" value="No dulipcated" style="edgeLabel;html=1;align=center;verticalAlign=middle;resizable=0;points=[];" vertex="1" connectable="0" parent="28f1PO6iU7kGZ7PdNL6H-45">
          <mxGeometry x="-0.5905" relative="1" as="geometry">
            <mxPoint x="43" as="offset" />
          </mxGeometry>
        </mxCell>
        <mxCell id="28f1PO6iU7kGZ7PdNL6H-47" value="" style="rounded=0;whiteSpace=wrap;html=1;direction=south;" vertex="1" parent="1">
          <mxGeometry x="483.25" y="200" width="7.5" height="40" as="geometry" />
        </mxCell>
        <mxCell id="28f1PO6iU7kGZ7PdNL6H-48" value="" style="rounded=0;orthogonalLoop=1;jettySize=auto;html=1;exitX=0.5;exitY=1;exitDx=0;exitDy=0;strokeColor=default;shape=link;entryX=0;entryY=0.5;entryDx=0;entryDy=0;endArrow=none;" edge="1" parent="1" target="28f1PO6iU7kGZ7PdNL6H-47">
          <mxGeometry relative="1" as="geometry">
            <mxPoint x="486.6999999999998" y="125" as="sourcePoint" />
            <mxPoint x="487" y="370" as="targetPoint" />
          </mxGeometry>
        </mxCell>
      </root>
    </mxGraphModel>
  </diagram>
</mxfile>
